static_grf.mot
version=1
nRows=30
nColumns 19
inDegrees=yes
endheader
time	1_ground_force_vx	1_ground_force_vy	1_ground_force_vz	1_ground_force_px	1_ground_force_py	1_ground_force_pz	1_ground_torque_x	1_ground_torque_y	1_ground_torque_z	2_ground_force_vx	2_ground_force_vy	2_ground_force_vz	2_ground_force_px	2_ground_force_py	2_ground_force_pz	2_ground_torque_x	2_ground_torque_y	2_ground_torque_z
            0.453500	          -11.225079	          426.136926	          -38.086573	           -0.254299	            0.006038	           -0.363141	           -0.060997	            2.315624	           -0.206962	            8.175103	          478.676561	           42.296959	           -0.298592	            0.005473	           -0.716651	           -0.004389	           -0.257014	           -0.022710
            0.454000	          -11.454195	          425.596055	          -38.088323	           -0.254354	            0.006037	           -0.362882	           -0.061543	            2.286708	           -0.204647	            8.220685	          479.044509	           42.439037	           -0.298658	            0.005474	           -0.716859	           -0.004513	           -0.262998	           -0.023299
            0.454500	          -11.362329	          425.235344	          -38.044237	           -0.254356	            0.006038	           -0.363059	           -0.062029	            2.321451	           -0.207692	            8.078100	          479.596820	           42.347212	           -0.298631	            0.005475	           -0.717186	           -0.003498	           -0.207690	           -0.018339
            0.455000	          -11.408741	          425.236319	          -38.273407	           -0.254613	            0.006038	           -0.363173	           -0.063514	            2.367334	           -0.213072	            7.799680	          478.859013	           42.391631	           -0.298782	            0.005473	           -0.716769	           -0.002450	           -0.150402	           -0.013315
            0.455500	          -11.133312	          426.316983	          -38.040168	           -0.254194	            0.006036	           -0.362560	           -0.060282	            2.308304	           -0.205969	            8.225317	          477.755631	           42.387509	           -0.298713	            0.005472	           -0.716466	           -0.005068	           -0.294370	           -0.026117
            0.456000	          -11.500301	          427.038171	          -38.082026	           -0.254326	            0.006037	           -0.362740	           -0.062458	            2.319245	           -0.206824	            8.124930	          479.597156	           42.300264	           -0.298594	            0.005474	           -0.716833	           -0.003272	           -0.193114	           -0.017033
            0.456500	          -11.408531	          425.956791	          -38.132743	           -0.254589	            0.006037	           -0.362928	           -0.062137	            2.319989	           -0.207691	            7.944197	          477.754783	           42.340701	           -0.298847	            0.005472	           -0.716620	           -0.003419	           -0.205595	           -0.018221
            0.457000	          -11.453952	          426.136292	          -37.948433	           -0.254327	            0.006036	           -0.362644	           -0.061679	            2.294707	           -0.204349	            7.802236	          478.123288	           42.154363	           -0.298688	            0.005473	           -0.716589	           -0.002474	           -0.151578	           -0.013364
            0.457500	          -11.317010	          426.858168	          -38.129106	           -0.254221	            0.006037	           -0.362922	           -0.062363	            2.352219	           -0.210112	            8.078621	          479.413851	           42.018058	           -0.298771	            0.005474	           -0.717025	           -0.003891	           -0.230901	           -0.020237
            0.458000	          -11.362673	          426.497431	          -38.084686	           -0.254426	            0.006036	           -0.362699	           -0.061810	            2.320040	           -0.207171	            7.985024	          479.412675	           42.252738	           -0.298540	            0.005475	           -0.717024	           -0.003296	           -0.197907	           -0.017442
            0.458500	          -11.225306	          426.137320	          -38.178285	           -0.254525	            0.006037	           -0.362795	           -0.060170	            2.284200	           -0.204645	            8.173732	          479.045177	           42.204416	           -0.298549	            0.005475	           -0.717014	           -0.003704	           -0.217081	           -0.019125
            0.459000	          -11.226136	          426.318931	          -38.498500	           -0.254455	            0.006037	           -0.362873	           -0.061693	            2.342814	           -0.211567	            8.131555	          477.755794	           42.246765	           -0.298721	            0.005473	           -0.716661	           -0.004315	           -0.253526	           -0.022419
            0.459500	          -11.316097	          425.595098	          -37.859381	           -0.254373	            0.006038	           -0.362994	           -0.062529	            2.351714	           -0.209200	            8.313741	          479.228821	           42.486582	           -0.298631	            0.005475	           -0.717022	           -0.004759	           -0.274296	           -0.024318
            0.460000	          -11.454731	          425.416802	          -38.318372	           -0.254450	            0.006039	           -0.363215	           -0.061455	            2.282356	           -0.205578	            8.363085	          478.493766	           42.108509	           -0.298774	            0.005473	           -0.716606	           -0.004629	           -0.264829	           -0.023306
            0.460500	          -11.224851	          426.136533	          -37.994861	           -0.254431	            0.006037	           -0.362867	           -0.061163	            2.321985	           -0.207031	            8.222055	          478.675893	           42.531579	           -0.298760	            0.005473	           -0.716609	           -0.003440	           -0.200243	           -0.017792
            0.461000	          -11.224785	          425.776002	          -37.996407	           -0.254234	            0.006037	           -0.362957	           -0.060494	            2.294631	           -0.204774	            8.032600	          479.228141	           42.392846	           -0.298612	            0.005474	           -0.716977	           -0.002671	           -0.159355	           -0.014097
            0.461500	          -11.269978	          425.955049	          -37.720385	           -0.254330	            0.006038	           -0.363147	           -0.059739	            2.257861	           -0.199945	            7.989820	          478.122458	           42.576636	           -0.298828	            0.005472	           -0.716554	           -0.004102	           -0.245447	           -0.021857
            0.462000	          -11.316420	          424.874822	          -38.045897	           -0.254457	            0.006038	           -0.363149	           -0.061798	            2.320200	           -0.207765	            7.940189	          478.859856	           42.297715	           -0.298730	            0.005473	           -0.716694	           -0.003736	           -0.225329	           -0.019903
            0.462500	          -11.133635	          425.596706	          -38.226684	           -0.254356	            0.006037	           -0.362894	           -0.060801	            2.324188	           -0.208756	            8.220747	          479.044007	           42.579821	           -0.298661	            0.005473	           -0.716740	           -0.004209	           -0.245290	           -0.021803
            0.463000	          -11.270921	          426.136918	          -38.086459	           -0.254441	            0.006037	           -0.362963	           -0.060584	            2.290584	           -0.204723	            8.128876	          478.492586	           42.202465	           -0.298710	            0.005473	           -0.716681	           -0.003119	           -0.183611	           -0.016194
            0.463500	          -11.362134	          425.415247	          -37.951752	           -0.254354	            0.006037	           -0.362958	           -0.061238	            2.292857	           -0.204548	            7.893380	          478.859352	           42.391591	           -0.298774	            0.005473	           -0.716693	           -0.003289	           -0.199531	           -0.017664
            0.464000	          -11.087124	          425.054966	          -37.999840	           -0.254429	            0.006038	           -0.363051	           -0.060175	            2.306989	           -0.206244	            8.173815	          479.044507	           42.392129	           -0.298791	            0.005474	           -0.716973	           -0.003124	           -0.183060	           -0.016200
            0.464500	          -11.179397	          425.776797	          -38.179945	           -0.254449	            0.006037	           -0.362798	           -0.060024	            2.286078	           -0.204996	            8.173794	          479.044675	           42.345201	           -0.298701	            0.005474	           -0.716897	           -0.004150	           -0.243214	           -0.021499
            0.465000	          -11.133489	          425.416275	          -38.181604	           -0.254381	            0.006038	           -0.363152	           -0.059058	            2.256638	           -0.202536	            8.503072	          478.677578	           42.343747	           -0.298733	            0.005473	           -0.716655	           -0.006242	           -0.351407	           -0.031085
            0.465500	          -11.317136	          425.056298	          -38.320259	           -0.254410	            0.006038	           -0.363173	           -0.060642	            2.277640	           -0.205337	            7.799680	          478.859013	           42.391631	           -0.298733	            0.005473	           -0.716732	           -0.003347	           -0.205459	           -0.018188
            0.466000	          -11.454488	          425.956979	          -38.178489	           -0.254427	            0.006037	           -0.362843	           -0.061137	            2.273496	           -0.203773	            7.892009	          479.227968	           42.299049	           -0.298758	            0.005473	           -0.716784	           -0.003625	           -0.220149	           -0.019431
            0.466500	          -11.362802	          425.956997	          -38.178717	           -0.254366	            0.006037	           -0.362888	           -0.061573	            2.308182	           -0.206883	            8.129623	          478.307776	           42.389521	           -0.298810	            0.005474	           -0.716912	           -0.003524	           -0.207328	           -0.018374
            0.467000	          -11.088005	          426.137739	          -38.270338	           -0.254196	            0.006037	           -0.362760	           -0.060019	            2.306660	           -0.207155	            7.940168	          478.860023	           42.250787	           -0.298855	            0.005474	           -0.717006	           -0.003092	           -0.186463	           -0.016452
            0.467500	          -11.271311	          425.777173	          -38.271429	           -0.254196	            0.006037	           -0.362852	           -0.060023	            2.267391	           -0.203807	            8.078744	          479.412846	           42.299627	           -0.298574	            0.005475	           -0.716986	           -0.003919	           -0.232556	           -0.020519
            0.468000	          -11.179430	          425.957032	          -38.179172	           -0.254394	            0.006036	           -0.362709	           -0.060210	            2.294119	           -0.205625	            7.941579	          478.491072	           42.437185	           -0.298629	            0.005473	           -0.716524	           -0.003227	           -0.194405	           -0.017242
